HIERARCHY
ROOT Hips
{
    OFFSET 0.000000 0.000000 0.000000
    CHANNELS 6 Xposition Yposition Zposition Zrotation Xrotation Yrotation
    JOINT Spine
    {
        OFFSET -0.000000 0.076824 0.000000
        CHANNELS 3 Zrotation Xrotation Yrotation
        JOINT Spine1
        {
            OFFSET -0.000000 0.205639 0.000000
            CHANNELS 3 Zrotation Xrotation Yrotation
            JOINT Neck
            {
                OFFSET -0.000000 0.204794 0.018618
                CHANNELS 3 Zrotation Xrotation Yrotation
                JOINT Head
                {
                    OFFSET -0.000000 0.131164 -0.018738
                    CHANNELS 3 Zrotation Xrotation Yrotation
                    End Site
                    {
                        OFFSET -0.000000 0.187377 0.000000
                    }
                }
            }
            JOINT LeftShoulder
            {
                OFFSET 0.037892 0.189814 -0.002396
                CHANNELS 3 Zrotation Xrotation Yrotation
                JOINT LeftArm
                {
                    OFFSET 0.104721 0.000000 0.000000
                    CHANNELS 3 Zrotation Xrotation Yrotation
                    JOINT LeftForeArm
                    {
                        OFFSET 0.316555 0.000000 0.000000
                        CHANNELS 3 Zrotation Xrotation Yrotation
                        JOINT LeftHand
                        {
                            OFFSET 0.270628 0.000000 0.000000
                            CHANNELS 3 Zrotation Xrotation Yrotation
                            JOINT LeftHandThumb1
                            {
                                OFFSET 0.023422 -0.014053 0.046844
                                CHANNELS 3 Zrotation Xrotation Yrotation
                                JOINT LeftHandThumb2
                                {
                                    OFFSET 0.028107 0.000000 0.000000
                                    CHANNELS 3 Zrotation Xrotation Yrotation
                                    JOINT LeftHandThumb3
                                    {
                                        OFFSET 0.028107 0.000000 0.000000
                                        CHANNELS 3 Zrotation Xrotation Yrotation
                                        End Site
                                        {
                                            OFFSET 0.026333 0.000000 0.000000
                                        }
                                    }
                                }
                            }
                            JOINT LeftHandIndex1
                            {
                                OFFSET 0.084320 0.000000 0.032791
                                CHANNELS 3 Zrotation Xrotation Yrotation
                                JOINT LeftHandIndex2
                                {
                                    OFFSET 0.046844 0.000000 0.000000
                                    CHANNELS 3 Zrotation Xrotation Yrotation
                                    JOINT LeftHandIndex3
                                    {
                                        OFFSET 0.023422 0.000000 0.000000
                                        CHANNELS 3 Zrotation Xrotation Yrotation
                                        End Site
                                        {
                                            OFFSET 0.021944 0.000000 0.000000
                                        }
                                    }
                                }
                            }
                            JOINT LeftHandMiddle1
                            {
                                OFFSET 0.084320 0.000000 0.010868
                                CHANNELS 3 Zrotation Xrotation Yrotation
                                JOINT LeftHandMiddle2
                                {
                                    OFFSET 0.051529 0.000000 0.000000
                                    CHANNELS 3 Zrotation Xrotation Yrotation
                                    JOINT LeftHandMiddle3
                                    {
                                        OFFSET 0.028107 0.000000 0.000000
                                        CHANNELS 3 Zrotation Xrotation Yrotation
                                        End Site
                                        {
                                            OFFSET 0.026333 0.000000 0.000000
                                        }
                                    }
                                }
                            }
                            JOINT LeftHandRing1
                            {
                                OFFSET 0.079635 0.000000 -0.010868
                                CHANNELS 3 Zrotation Xrotation Yrotation
                                JOINT LeftHandRing2
                                {
                                    OFFSET 0.046844 0.000000 0.000000
                                    CHANNELS 3 Zrotation Xrotation Yrotation
                                    JOINT LeftHandRing3
                                    {
                                        OFFSET 0.023422 0.000000 0.000000
                                        CHANNELS 3 Zrotation Xrotation Yrotation
                                        End Site
                                        {
                                            OFFSET 0.021944 0.000000 0.000000
                                        }
                                    }
                                }
                            }
                            JOINT LeftHandPinky1
                            {
                                OFFSET 0.074951 0.000000 -0.032791
                                CHANNELS 3 Zrotation Xrotation Yrotation
                                JOINT LeftHandPinky2
                                {
                                    OFFSET 0.037475 0.000000 0.000000
                                    CHANNELS 3 Zrotation Xrotation Yrotation
                                    JOINT LeftHandPinky3
                                    {
                                        OFFSET 0.018738 0.000000 0.000000
                                        CHANNELS 3 Zrotation Xrotation Yrotation
                                        End Site
                                        {
                                            OFFSET 0.017555 0.000000 0.000000
                                        }
                                    }
                                }
                            }
                        }
                    }
                }
            }
            JOINT RightShoulder
            {
                OFFSET -0.036963 0.189814 -0.002396
                CHANNELS 3 Zrotation Xrotation Yrotation
                JOINT RightArm
                {
                    OFFSET -0.104721 0.000000 0.000000
                    CHANNELS 3 Zrotation Xrotation Yrotation
                    JOINT RightForeArm
                    {
                        OFFSET -0.316555 0.000000 0.000000
                        CHANNELS 3 Zrotation Xrotation Yrotation
                        JOINT RightHand
                        {
                            OFFSET -0.270628 0.000000 0.000000
                            CHANNELS 3 Zrotation Xrotation Yrotation
                            JOINT RightHandThumb1
                            {
                                OFFSET -0.023422 -0.014053 0.046844
                                CHANNELS 3 Zrotation Xrotation Yrotation
                                JOINT RightHandThumb2
                                {
                                    OFFSET -0.028107 0.000000 0.000000
                                    CHANNELS 3 Zrotation Xrotation Yrotation
                                    JOINT RightHandThumb3
                                    {
                                        OFFSET -0.028107 0.000000 0.000000
                                        CHANNELS 3 Zrotation Xrotation Yrotation
                                        End Site
                                        {
                                            OFFSET -0.026333 0.000000 0.000000
                                        }
                                    }
                                }
                            }
                            JOINT RightHandIndex1
                            {
                                OFFSET -0.084320 0.000000 0.032791
                                CHANNELS 3 Zrotation Xrotation Yrotation
                                JOINT RightHandIndex2
                                {
                                    OFFSET -0.046844 0.000000 0.000000
                                    CHANNELS 3 Zrotation Xrotation Yrotation
                                    JOINT RightHandIndex3
                                    {
                                        OFFSET -0.023422 0.000000 0.000000
                                        CHANNELS 3 Zrotation Xrotation Yrotation
                                        End Site
                                        {
                                            OFFSET -0.021944 0.000000 0.000000
                                        }
                                    }
                                }
                            }
                            JOINT RightHandMiddle1
                            {
                                OFFSET -0.084320 0.000000 0.010868
                                CHANNELS 3 Zrotation Xrotation Yrotation
                                JOINT RightHandMiddle2
                                {
                                    OFFSET -0.051529 0.000000 0.000000
                                    CHANNELS 3 Zrotation Xrotation Yrotation
                                    JOINT RightHandMiddle3
                                    {
                                        OFFSET -0.028107 0.000000 0.000000
                                        CHANNELS 3 Zrotation Xrotation Yrotation
                                        End Site
                                        {
                                            OFFSET -0.026333 0.000000 0.000000
                                        }
                                    }
                                }
                            }
                            JOINT RightHandRing1
                            {
                                OFFSET -0.079635 0.000000 -0.010868
                                CHANNELS 3 Zrotation Xrotation Yrotation
                                JOINT RightHandRing2
                                {
                                    OFFSET -0.046844 0.000000 0.000000
                                    CHANNELS 3 Zrotation Xrotation Yrotation
                                    JOINT RightHandRing3
                                    {
                                        OFFSET -0.023422 0.000000 0.000000
                                        CHANNELS 3 Zrotation Xrotation Yrotation
                                        End Site
                                        {
                                            OFFSET -0.021944 0.000000 0.000000
                                        }
                                    }
                                }
                            }
                            JOINT RightHandPinky1
                            {
                                OFFSET -0.074951 0.000000 -0.032791
                                CHANNELS 3 Zrotation Xrotation Yrotation
                                JOINT RightHandPinky2
                                {
                                    OFFSET -0.037475 0.000000 0.000000
                                    CHANNELS 3 Zrotation Xrotation Yrotation
                                    JOINT RightHandPinky3
                                    {
                                        OFFSET -0.018738 0.000000 0.000000
                                        CHANNELS 3 Zrotation Xrotation Yrotation
                                        End Site
                                        {
                                            OFFSET -0.017555 0.000000 0.000000
                                        }
                                    }
                                }
                            }
                        }
                    }
                }
            }
        }
    }
    JOINT LeftUpLeg
    {
        OFFSET 0.093688 0.000000 0.000000
        CHANNELS 3 Zrotation Xrotation Yrotation
        JOINT LeftLeg
        {
            OFFSET -0.000000 -0.377687 0.000000
            CHANNELS 3 Zrotation Xrotation Yrotation
            JOINT LeftFoot
            {
                OFFSET -0.000000 -0.399231 0.000000
                CHANNELS 3 Zrotation Xrotation Yrotation
                JOINT LeftToeBase
                {
                    OFFSET -0.000000 -0.060897 0.140533
                    CHANNELS 3 Zrotation Xrotation Yrotation
                    End Site
                    {
                        OFFSET -0.000000 0.000000 0.037475
                    }
                }
            }
        }
    }
    JOINT RightUpLeg
    {
        OFFSET -0.093688 0.000000 0.000000
        CHANNELS 3 Zrotation Xrotation Yrotation
        JOINT RightLeg
        {
            OFFSET -0.000000 -0.377687 0.000000
            CHANNELS 3 Zrotation Xrotation Yrotation
            JOINT RightFoot
            {
                OFFSET -0.000000 -0.399231 0.000000
                CHANNELS 3 Zrotation Xrotation Yrotation
                JOINT RightToeBase
                {
                    OFFSET -0.000000 -0.060897 0.140533
                    CHANNELS 3 Zrotation Xrotation Yrotation
                    End Site
                    {
                        OFFSET -0.000000 0.000000 0.037475
                    }
                }
            }
        }
    }
}
MOTION
Frames:    5
Frame Time:    0.040000
-1.509166    0.871324    0.650498    1.069045    3.364332    4.58765    -4.386333    -15.504489    -1.762456    3.071856    6.572938    -0.547631    4.980926    24.658033    22.058931    -12.683266    -4.536851    21.169205    22.230795    -3.603404    -1.486055    -16.855406    2.346094    -12.31369    0.0    19.475523    5.204392    13.455644    -5.836809    0.0    0.0    0.0    0.0    0.0    0.0    0.0    0.0    0.0    0.0    -0.039565    0.0    0.0    -0.079129    0.0    0.0    -0.039565    0.0    0.0    -0.441651    -0.031033    2.088392    -0.885164    0.0    0.0    -0.44258    0.0    0.0    -0.84234    -0.076697    4.176516    -1.691199    0.0    0.0    -0.845601    0.0    0.0    -1.253148    -0.138981    6.327531    -2.52166    0.0    0.0    -1.26083    0.0    0.0    -13.945678    -0.328886    -6.449739    20.275248    -2.468573    13.090665    0.0    -0.289982    -4.152454    -13.363377    11.814432    0.0    28.973351    -4.620017    38.402081    0.0    0.0    0.0    0.0    0.0    0.0    0.0    0.0    0.0    0.0    0.0    0.0    0.0    0.0    0.0    0.126754    0.0    -0.0    0.253508    0.0    -0.0    0.126754    0.0    -0.0    0.253509    0.0    -0.0    0.507018    0.0    -0.0    0.253509    0.0    -0.0    0.384104    0.0    -0.0    0.768209    0.0    -0.0    0.384104    0.0    -0.0    5.799673    1.066774    1.751438    -0.2    3.570805    1.0    1.514107    -13.599477    1.445635    1.944346    7.177941    -4.348846    -10.731039    5.591522    3.980232    0.2    0.064265    -1.0    -90.420455    -5.263155    0.0    0.817438    0.657009    -3.255872
-1.509366    0.871383    0.65022    1.033618    3.327679    4.53009    -4.414221    -15.466253    -1.75791    3.111018    6.546673    -0.547024    4.982844    24.639807    22.012447    -12.481439    -4.262336    21.183939    22.253933    -3.714378    -1.558771    -16.861782    2.331086    -12.210795    0.0    19.668362    5.238811    13.604309    -5.988542    0.0    0.0    0.0    0.0    0.0    0.0    0.0    0.0    0.0    0.0    -0.306467    0.0    0.0    -0.612934    0.0    0.0    -0.306467    0.0    0.0    -0.641297    -0.036513    2.128379    -1.284583    0.0    0.0    -0.642291    0.0    0.0    -0.97454    -0.085434    4.25651    -1.956232    0.0    0.0    -0.978117    0.0    0.0    -1.315737    -0.148745    6.4488    -2.648234    0.0    0.0    -1.324117    0.0    0.0    -13.976754    -0.348368    -6.484361    20.243397    -2.294642    13.054669    0.0    -0.413167    -4.184768    -13.595069    12.054842    0.0    28.614843    -5.488963    39.322079    0.0    0.0    0.0    0.0    0.0    0.0    0.0    0.0    0.0    0.0    0.0    0.0    0.0    0.0    0.0    0.279725    0.0    -0.0    0.559451    0.0    -0.0    0.279725    0.0    -0.0    0.559452    0.0    -0.0    1.118902    0.0    -0.0    0.559452    0.0    -0.0    0.847653    0.0    -0.0    1.695306    0.0    -0.0    0.847653    0.0    -0.0    5.855084    1.095034    1.786685    -0.2    3.564927    1.0    1.519042    -13.564444    1.507377    1.93968    7.158476    -4.340154    -10.693396    5.628598    4.008792    0.2    0.0    -1.0    -90.46884    -5.212169    0.0    0.817748    0.675858    -3.256305
-1.50952    0.8714    0.650064    1.02827    3.312994    4.50065    -4.478433    -15.462284    -1.782038    3.138212    6.473896    -0.551702    5.047948    24.69154    21.923378    -12.319384    -3.939599    21.160131    22.247322    -3.61488    -1.640973    -16.854084    2.301031    -12.200503    0.0    19.625578    5.279297    13.79012    -6.18411    0.0    0.0    0.0    0.0    0.0    0.0    0.0    0.0    0.0    0.0    -0.296735    0.0    0.0    -0.593471    0.0    0.0    -0.296735    0.0    0.0    -0.648097    -0.037431    2.130652    -1.298251    0.0    0.0    -0.649124    0.0    0.0    -0.997824    -0.087898    4.261036    -2.003031    0.0    0.0    -1.001516    0.0    0.0    -1.355929    -0.153454    6.455618    -2.729167    0.0    0.0    -1.364584    0.0    0.0    -14.025886    -0.254613    -6.417461    20.272068    -2.382526    12.959014    0.0    -0.185203    -4.149397    -13.280295    11.78149    0.0    28.811165    -5.240166    39.215252    0.0    0.0    0.0    0.0    0.0    0.0    0.0    0.0    0.0    0.0    0.0    0.0    0.0    0.0    0.0    0.075287    0.0    -0.0    0.150573    0.0    -0.0    0.075287    0.0    -0.0    0.150573    0.0    -0.0    0.301147    0.0    -0.0    0.150573    0.0    -0.0    0.228141    0.0    -0.0    0.456282    0.0    -0.0    0.228141    0.0    -0.0    5.867597    1.098103    1.749615    -0.2    3.576883    1.0    1.548967    -13.460577    1.57799    1.929013    7.042324    -4.331482    -10.676902    5.635192    4.001416    0.2    0.0    -1.0    -90.453563    -5.188783    0.0    0.819678    0.665258    -3.264333
-1.509669    0.87139    0.649893    1.010714    3.306532    4.468044    -4.528702    -15.522948    -1.777851    3.161179    6.542997    -0.550619    5.164948    24.579445    21.809092    -12.247478    -3.502912    21.102108    22.242237    -3.659925    -1.710474    -16.986233    2.687535    -12.620986    0.0    19.076439    4.588207    13.85571    -5.942634    0.0    7.98122    -28.982798    -18.353834    0.0    0.0    0.0    0.0    0.0    0.0    -1.378018    0.098638    -4.093435    -2.763087    0.0    0.0    -1.381543    0.0    0.0    1.17463    0.004957    -2.744542    -1.851268    0.0    0.0    -0.925637    0.0    0.0    3.728775    -0.028535    -1.392816    -0.93945    0.0    0.0    -0.469722    0.0    0.0    6.360388    0.0    -0.0    0.0    0.0    0.0    0.0    0.0    0.0    -14.062566    -0.297249    -6.485759    20.2472    -2.504107    12.949346    0.0    -0.018442    -4.144702    -13.392727    11.733798    0.0    28.819042    -5.067234    38.929398    0.0    0.0    0.0    0.0    0.0    0.0    0.0    0.0    0.0    0.0    0.0    0.0    0.0    0.0    0.0    0.013056    0.0    -0.0    0.026113    0.0    -0.0    0.013056    0.0    -0.0    0.026113    0.0    -0.0    0.052225    0.0    -0.0    0.026113    0.0    -0.0    0.039565    0.0    -0.0    0.079129    0.0    -0.0    0.039565    0.0    -0.0    5.900731    1.085588    1.768886    -0.2    3.597417    1.0    1.553937    -13.578355    1.553245    1.934296    7.13361    -4.330492    -10.649525    5.61534    4.023038    0.2    0.0    -1.0    -90.45812    -5.164456    0.0    0.817912    0.643838    -3.258291
-1.509824    0.871414    0.649801    0.988859    3.276085    4.431813    -4.578996    -15.524216    -1.823394    3.204503    6.536944    -0.566087    4.933162    24.376265    21.494051    -11.795389    -3.014377    20.866211    22.223183    -3.682281    -1.72803    -17.001656    2.665088    -13.40574    0.0    19.174326    3.23577    13.029412    -6.0162    0.0    -35.377678    -19.613073    -62.615948    0.0    0.0    0.0    0.0    0.0    0.0    -1.378018    0.098638    -4.093435    -2.763087    0.0    0.0    -1.381543    0.0    0.0    1.419164    -0.000901    -2.744777    -1.851268    0.0    0.0    -0.925637    0.0    0.0    4.217914    -0.034485    -1.392869    -0.93945    0.0    0.0    -0.469722    0.0    0.0    7.101471    0.0    -0.0    0.0    0.0    0.0    0.0    0.0    0.0    -14.119534    -0.351392    -6.460175    20.230265    -2.461447    12.942664    0.0    0.148179    -4.257975    -13.814083    11.980614    0.0    28.744276    -5.940096    40.300423    0.0    0.0    0.0    0.0    0.0    0.0    0.0    0.0    0.0    0.0    0.0    0.0    0.0    0.0    0.0    0.293988    0.0    -0.0    0.587977    0.0    -0.0    0.293988    0.0    -0.0    0.587977    0.0    -0.0    1.175953    0.0    -0.0    0.587977    0.0    -0.0    0.890873    0.0    -0.0    1.781747    0.0    -0.0    0.890873    0.0    -0.0    5.939439    1.109599    1.771719    -0.2    3.604212    1.0    1.563011    -13.548223    1.592434    1.930028    7.085555    -4.327266    -10.61389    5.61954    4.041646    0.2    0.0    -1.0    -90.470193    -5.136707    0.0    0.804045    0.621502    -3.204633
